<svg xmlns="http://www.w3.org/2000/svg" width="600" height="400" viewBox="0 0 600 400"><rect width="100%" height="100%" fill="#DDDDDD"/><path fill="#999999" d="M196.045 153.095h10.75v76.64h-12.56v-49.5q0-2.97.32-6.41l-23.16 43.51q-1.64 3.12-5.03 3.12h-2.02q-3.39 0-5.03-3.12l-23.43-43.67q.16 1.75.27 3.44.1 1.7.1 3.13v49.5h-12.56v-76.64h10.76q.95 0 1.64.06.69.05 1.25.26.55.21 1.01.69.45.48.87 1.27l22.95 42.56q.9 1.7 1.67 3.5t1.51 3.71q.74-1.96 1.54-3.79.79-1.83 1.69-3.53l22.63-42.45q.43-.79.9-1.27.48-.48 1.04-.69.55-.21 1.24-.26.69-.06 1.65-.06m26.18 22.26h13.14v54.38h-13.14zm14.94-15.84q0 1.69-.69 3.17-.68 1.49-1.82 2.6t-2.68 1.78q-1.54.66-3.29.66-1.69 0-3.2-.66-1.51-.67-2.63-1.78-1.11-1.11-1.77-2.6-.66-1.48-.66-3.17 0-1.75.66-3.29t1.77-2.65q1.12-1.11 2.63-1.78 1.51-.66 3.2-.66 1.75 0 3.29.66 1.54.67 2.68 1.78t1.82 2.65q.69 1.54.69 3.29m47.7 21.73-2.96 4.71q-.53.85-1.12 1.19-.58.35-1.48.35-.96 0-2.04-.53-1.09-.53-2.52-1.19-1.43-.67-3.26-1.2t-4.32-.53q-3.87 0-6.07 1.65-2.2 1.64-2.2 4.29 0 1.75 1.14 2.94t3.02 2.1q1.89.9 4.27 1.61 2.39.72 4.85 1.56 2.46.85 4.85 1.94 2.38 1.09 4.27 2.76 1.88 1.66 3.02 4 1.14 2.33 1.14 5.62 0 3.92-1.41 7.23-1.4 3.31-4.16 5.72-2.75 2.42-6.81 3.77-4.05 1.35-9.35 1.35-2.81 0-5.49-.51-2.68-.5-5.14-1.4t-4.56-2.12q-2.09-1.22-3.68-2.65l3.02-4.98q.58-.9 1.38-1.38.79-.48 2.01-.48t2.31.69q1.08.69 2.51 1.49 1.44.79 3.37 1.48t4.9.69q2.33 0 4-.56 1.67-.55 2.76-1.45 1.09-.91 1.59-2.1t.5-2.46q0-1.91-1.14-3.13t-3.02-2.12-4.29-1.62q-2.41-.71-4.93-1.56t-4.93-1.99-4.29-2.89-3.02-4.29-1.14-6.15q0-3.34 1.32-6.36 1.33-3.02 3.9-5.27t6.41-3.6q3.84-1.36 8.88-1.36 5.62 0 10.23 1.86 4.61 1.85 7.68 4.88m46.59 0-2.97 4.71q-.53.85-1.11 1.19-.58.35-1.48.35-.96 0-2.04-.53-1.09-.53-2.52-1.19-1.43-.67-3.26-1.2t-4.32-.53q-3.87 0-6.07 1.65-2.2 1.64-2.2 4.29 0 1.75 1.14 2.94t3.02 2.1q1.88.9 4.27 1.61 2.38.72 4.85 1.56 2.46.85 4.85 1.94 2.38 1.09 4.26 2.76 1.88 1.66 3.02 4 1.14 2.33 1.14 5.62 0 3.92-1.4 7.23-1.41 3.31-4.16 5.72-2.76 2.42-6.81 3.77-4.06 1.35-9.36 1.35-2.81 0-5.48-.51-2.68-.5-5.14-1.4-2.47-.9-4.56-2.12t-3.68-2.65l3.02-4.98q.58-.9 1.37-1.38.8-.48 2.02-.48t2.3.69q1.09.69 2.52 1.49 1.43.79 3.37 1.48 1.93.69 4.9.69 2.33 0 4-.56 1.67-.55 2.76-1.45 1.08-.91 1.59-2.1.5-1.19.5-2.46 0-1.91-1.14-3.13t-3.02-2.12-4.29-1.62q-2.41-.71-4.93-1.56t-4.93-1.99-4.29-2.89q-1.89-1.75-3.02-4.29-1.14-2.54-1.14-6.15 0-3.34 1.32-6.36 1.33-3.02 3.9-5.27t6.41-3.6q3.84-1.36 8.88-1.36 5.61 0 10.23 1.86 4.61 1.85 7.68 4.88m10.87-5.89h13.14v54.38h-13.14zm14.94-15.84q0 1.69-.69 3.17-.69 1.49-1.83 2.6t-2.67 1.78q-1.54.66-3.29.66-1.69 0-3.2-.66-1.52-.67-2.63-1.78t-1.77-2.6q-.67-1.48-.67-3.17 0-1.75.67-3.29.66-1.54 1.77-2.65t2.63-1.78q1.51-.66 3.2-.66 1.75 0 3.29.66 1.53.67 2.67 1.78t1.83 2.65.69 3.29m22.9 18.23.9 4.29q1.64-1.64 3.47-3.05 1.83-1.4 3.87-2.38t4.37-1.54 5.09-.56q4.45 0 7.9 1.51 3.44 1.52 5.75 4.24 2.3 2.73 3.5 6.52 1.19 3.79 1.19 8.35v34.61h-13.09v-34.61q0-4.98-2.28-7.71t-6.95-2.73q-3.39 0-6.36 1.54-2.96 1.53-5.61 4.18v39.33h-13.09v-54.38h8q2.54 0 3.34 2.39m68.31 23.48q2.44 0 4.24-.67 1.81-.66 3-1.82 1.19-1.17 1.8-2.81.61-1.65.61-3.61 0-4.03-2.41-6.38-2.41-2.36-7.24-2.36-4.82 0-7.23 2.36-2.41 2.35-2.41 6.38 0 1.91.61 3.55.61 1.65 1.8 2.84t3.02 1.85q1.83.67 4.21.67m14.79 30.95q0-1.59-.95-2.6-.96-1.01-2.6-1.56-1.64-.56-3.84-.82-2.2-.27-4.67-.4-2.46-.13-5.08-.24-2.63-.11-5.12-.42-2.17 1.22-3.52 2.86t-1.35 3.81q0 1.43.71 2.68.72 1.25 2.28 2.15t4.05 1.4q2.5.5 6.1.5 3.66 0 6.31-.55 2.65-.56 4.37-1.54t2.52-2.33q.79-1.35.79-2.94m-2.6-54.96h15.64v4.87q0 2.34-2.81 2.87l-4.88.9q1.12 2.81 1.12 6.14 0 4.03-1.62 7.29t-4.48 5.54-6.75 3.52q-3.9 1.25-8.41 1.25-1.59 0-3.07-.16t-2.91-.42q-2.55 1.53-2.55 3.44 0 1.65 1.51 2.41 1.51.77 4 1.09t5.68.4q3.17.08 6.51.34 3.34.27 6.52.93t5.67 2.09 4.01 3.9q1.51 2.46 1.51 6.33 0 3.61-1.78 7t-5.14 6.04q-3.37 2.65-8.27 4.27-4.9 1.61-11.15 1.61-6.15 0-10.71-1.19t-7.58-3.18-4.51-4.58q-1.48-2.6-1.48-5.41 0-3.82 2.31-6.39 2.3-2.57 6.33-4.1-2.17-1.12-3.45-2.97-1.27-1.86-1.27-4.88 0-1.22.45-2.52.45-1.29 1.33-2.57.87-1.27 2.2-2.41 1.32-1.14 3.13-2.04-4.14-2.22-6.5-5.93t-2.36-8.7q0-4.02 1.62-7.28t4.51-5.57q2.88-2.3 6.83-3.52t8.61-1.22q3.5 0 6.58.71 3.07.72 5.61 2.1"/></svg>